<mxfile host="app.diagrams.net" modified="2023-08-05T13:07:37.820Z" agent="Mozilla/5.0 (Macintosh; Intel Mac OS X 10.15; rv:109.0) Gecko/20100101 Firefox/115.0" etag="ONYOfPQ1jrNegl2YEuPy" version="21.6.6" type="github">
  <diagram name="Page-1" id="d0J7wmIgQw-V9BeTZogU">
    <mxGraphModel dx="1026" dy="686" grid="1" gridSize="10" guides="1" tooltips="1" connect="1" arrows="1" fold="1" page="1" pageScale="1" pageWidth="850" pageHeight="1100" math="0" shadow="0">
      <root>
        <mxCell id="0" />
        <mxCell id="1" parent="0" />
        <mxCell id="g4TZp5pNpmG4t6H4J_1g-1" value="" style="image;points=[];aspect=fixed;html=1;align=center;shadow=0;dashed=0;image=img/lib/allied_telesis/computer_and_terminals/Server_Desktop.svg;" vertex="1" parent="1">
          <mxGeometry x="590" y="100" width="126.22" height="160" as="geometry" />
        </mxCell>
        <mxCell id="g4TZp5pNpmG4t6H4J_1g-2" value="" style="shape=image;verticalLabelPosition=bottom;labelBackgroundColor=default;verticalAlign=top;aspect=fixed;imageAspect=0;image=data:image/svg+xml,PHN2ZyB4bWw6c3BhY2U9InByZXNlcnZlIiB2aWV3Qm94PSIwIDAgNTEyIDUxMiIgeG1sbnM6eGxpbms9Imh0dHA6Ly93d3cudzMub3JnLzE5OTkveGxpbmsiIHhtbG5zPSJodHRwOi8vd3d3LnczLm9yZy8yMDAwL3N2ZyIgaWQ9IkxheWVyXzEiIHZlcnNpb249IjEuMSIgd2lkdGg9IjgwMHB4IiBoZWlnaHQ9IjgwMHB4IiBmaWxsPSIjMDAwMDAwIj4mI3hhOzxnPiYjeGE7CTxnPiYjeGE7CQk8cGF0aCBkPSJNMjQ0LjY0NiwxMTcuMzQyYy0wLjEzNC0wLjcxMi0wLjM1Ni0xLjQxNC0wLjYzNC0yLjA4MWMtMC4yNzgtMC42NzktMC42MjMtMS4zMjUtMS4wMjQtMS45MjYmI3hBOyYjOTsmIzk7JiM5O2MtMC40LTAuNjEyLTAuODY3LTEuMTgtMS4zOC0xLjY5MmMtMC41MTItMC41MTItMS4wOC0wLjk3OS0xLjY5Mi0xLjM4Yy0wLjYwMS0wLjQwMS0xLjI0Ny0wLjc0Ni0xLjkyNi0xLjAyNCYjeEE7JiM5OyYjOTsmIzk7Yy0wLjY2OC0wLjI3OC0xLjM2OC0wLjUwMS0yLjA4LTAuNjM0Yy0zLjYwNi0wLjczNS03LjQ1NywwLjQ1Ni0xMC4wNDEsMy4wMzljLTAuNTEyLDAuNTEyLTAuOTc5LDEuMDgtMS4zOCwxLjY5MiYjeEE7JiM5OyYjOTsmIzk7Yy0wLjQxMiwwLjYwMS0wLjc0NiwxLjI0Ny0xLjAyNCwxLjkyNmMtMC4yNzgsMC42NjgtMC41MDEsMS4zNjktMC42MzMsMi4wODFjLTAuMTQ2LDAuNzEyLTAuMjIzLDEuNDQ3LTAuMjIzLDIuMTcmI3hBOyYjOTsmIzk7JiM5O2MwLDIuOTI3LDEuMTksNS43OTksMy4yNjEsNy44NjljMi4wNzEsMi4wNyw0Ljk0MiwzLjI2MSw3Ljg2OSwzLjI2MWMwLjcyMiwwLDEuNDU4LTAuMDc4LDIuMTctMC4yMjMmI3hBOyYjOTsmIzk7JiM5O2MwLjcxMi0wLjEzNCwxLjQxNC0wLjM1NiwyLjA4LTAuNjM0YzAuNjc5LTAuMjc4LDEuMzI1LTAuNjIzLDEuOTI2LTEuMDI0YzAuNjEyLTAuNDAxLDEuMTgtMC44NjgsMS42OTItMS4zOCYjeEE7JiM5OyYjOTsmIzk7YzAuNTEzLTAuNTEyLDAuOTgxLTEuMDgsMS4zOC0xLjY5MmMwLjQwMS0wLjYwMSwwLjc0Ni0xLjI0NywxLjAyNC0xLjkxNGMwLjI3OC0wLjY3OSwwLjUwMS0xLjM4LDAuNjM0LTIuMDkzJiN4QTsmIzk7JiM5OyYjOTtjMC4xNDUtMC43MTIsMC4yMjMtMS40NDcsMC4yMjMtMi4xN1MyNDQuNzkxLDExOC4wNTQsMjQ0LjY0NiwxMTcuMzQyeiIvPiYjeGE7CTwvZz4mI3hhOzwvZz4mI3hhOzxnPiYjeGE7CTxnPiYjeGE7CQk8cGF0aCBkPSJNNTAwLjg3LDE2Ni44MTd2LTU1LjY1MmMwLTYuMTQ3LTQuOTg0LTExLjEzLTExLjEzLTExLjEzaC0xMS4xM1Y1NS41MTJoMjIuMjYxYzYuMTQ2LDAsMTEuMTMtNC45ODMsMTEuMTMtMTEuMTMmI3hBOyYjOTsmIzk7JiM5O3MtNC45ODQtMTEuMTMtMTEuMTMtMTEuMTNoLTIyLjI2MXYtMTEuMTNjMC02LjE0Ny00Ljk4NC0xMS4xMy0xMS4xMy0xMS4xM3MtMTEuMTMsNC45ODMtMTEuMTMsMTEuMTN2MTEuMTNoLTIyLjI2MSYjeEE7JiM5OyYjOTsmIzk7Yy02LjE0NiwwLTExLjEzLDQuOTgzLTExLjEzLDExLjEzczQuOTg0LDExLjEzLDExLjEzLDExLjEzaDIyLjI2MXY0NC41MjJoLTExLjEzYy02LjE0NiwwLTExLjEzLDQuOTgzLTExLjEzLDExLjEzdjU1LjY1MiYjeEE7JiM5OyYjOTsmIzk7aC0xNC4yMzhsLTQuMTA3LTEyLjMyMWMtOS4xOTUtMjcuNTgxLTM0LjkwNC00Ni4xMTMtNjMuOTc4LTQ2LjExM2gtODQuMjYyYy02LjE0NiwwLTExLjEzLDQuOTgzLTExLjEzLDExLjEzJiN4QTsmIzk7JiM5OyYjOTtzNC45ODQsMTEuMTMsMTEuMTMsMTEuMTNoODQuMjYyYzE5LjQ3NiwwLDM2LjcsMTIuNDE0LDQyLjg2LDMwLjg5MWw0LjUyMiwxMy41N2MyLjc4Niw4LjM1OCwxMC41NzcsMTMuOTczLDE5LjM4NywxMy45NzNoMjYuNjg0JiN4QTsmIzk7JiM5OyYjOTtoNDQuNTIydjIyLjI2MWgtNzIuOTMzYy02Ljg0OSwwLTEzLjIwNSwzLjQwMy0xNy4wMDIsOS4wOTljLTguMzk5LDEyLjU5Ny0yMi40NTEsMjAuMTE4LTM3LjU5MSwyMC4xMThoLTE3LjE3JiN4QTsmIzk7JiM5OyYjOTtjLTUuMDI1LDAtOS40MjcsMy4zNjctMTAuNzQyLDguMjE4bC05Ljc5NSwzNi4xMThjLTUuNzgyLDIxLjMyNi0yNC43MDIsMzYuNDcyLTQ2LjU2OCwzNy42NjZoLTQzLjg3OCYjeEE7JiM5OyYjOTsmIzk7Yy0yMS44NjYtMS4xOTQtNDAuNzg0LTE2LjM0MS00Ni41NjgtMzcuNjY3bC05Ljc5NS0zNi4xMThjLTEuMzE2LTQuODUtNS43MTgtOC4yMTgtMTAuNzQyLTguMjE4aC0xNy4xNjkmI3hBOyYjOTsmIzk7JiM5O2MtNy41NzYsMC0xNC44OC0xLjg4NC0yMS4zNC01LjM0NWMtMC4xMTQtMC4wNjgtMC4yMjgtMC4xMzQtMC4zNDUtMC4xOThjLTYuMzAxLTMuNDQ3LTExLjc4Ni04LjM5NS0xNS45MDUtMTQuNTczJiN4QTsmIzk7JiM5OyYjOTtjLTMuNzk4LTUuNjk5LTEwLjE1NC05LjEwMS0xNy4wMDMtOS4xMDFIMjIuMjYxdi0yMi4yNjFoNDQuNTIyaDI2LjY4NWM4LjgxLDAsMTYuNjAxLTUuNjE1LDE5LjM4Ni0xMy45NzJsNC41MjUtMTMuNTcxJiN4QTsmIzk7JiM5OyYjOTtjNi4xNTgtMTguNDc4LDIzLjM4My0zMC44OTEsNDIuODU5LTMwLjg5MWg0MC4xMTFjNi4xNDYsMCwxMS4xMy00Ljk4MywxMS4xMy0xMS4xM3MtNC45ODQtMTEuMTMtMTEuMTMtMTEuMTNoLTQwLjExMSYjeEE7JiM5OyYjOTsmIzk7Yy0yOS4wNzQsMC01NC43ODQsMTguNTMxLTYzLjk3Nyw0Ni4xMTJsLTQuMTA4LDEyLjMyM0g3Ny45MTN2LTU1LjY1MmMwLTYuMTQ3LTQuOTg0LTExLjEzLTExLjEzLTExLjEzaC0xMS4xM1Y1NS41MTJoMjIuMjYxJiN4QTsmIzk7JiM5OyYjOTtjNi4xNDYsMCwxMS4xMy00Ljk4MywxMS4xMy0xMS4xM3MtNC45ODQtMTEuMTMtMTEuMTMtMTEuMTNINTUuNjUydi0xMS4xM2MwLTYuMTQ3LTQuOTg0LTExLjEzLTExLjEzLTExLjEzJiN4QTsmIzk7JiM5OyYjOTtjLTYuMTQ2LDAtMTEuMTMsNC45ODMtMTEuMTMsMTEuMTN2MTEuMTNIMTEuMTNDNC45ODQsMzMuMjUyLDAsMzguMjM1LDAsNDQuMzgyczQuOTg0LDExLjEzLDExLjEzLDExLjEzaDIyLjI2MXY0NC41MjJoLTExLjEzJiN4QTsmIzk7JiM5OyYjOTtjLTYuMTQ2LDAtMTEuMTMsNC45ODMtMTEuMTMsMTEuMTN2NTUuNjUyQzQuOTg0LDE2Ni44MTcsMCwxNzEuOCwwLDE3Ny45NDd2NDQuNTIyYzAsNi4xNDcsNC45ODQsMTEuMTMsMTEuMTMsMTEuMTNoODMuMDk0JiN4QTsmIzk7JiM5OyYjOTtjNC4yMjEsNi4xMzgsOS4zNTUsMTEuNDM5LDE1LjE1LDE1Ljc4bC0xOS43NDgsNTguNTc3Yy0wLjM4NiwxLjE0Ni0wLjU4MywyLjM0Ni0wLjU4MywzLjU1NnYxNzguMDg3JiN4QTsmIzk7JiM5OyYjOTtjMCw2LjE0Nyw0Ljk4NCwxMS4xMywxMS4xMywxMS4xM2M2LjE0NiwwLDExLjEzLTQuOTgzLDExLjEzLTExLjEzVjMxMy4zMzhsMTguMDkxLTUzLjY2NWM2LjUwNSwyLjA1OCwxMy4zNywzLjE0NCwyMC4zOTIsMy4xNDQmI3hBOyYjOTsmIzk7JiM5O2g4LjY1NGw3LjU2NywyNy45MDFjNy4zODIsMjcuMjI0LDI5LjY3OSw0Ny40MjksNTYuNiw1Mi43NzV2MTIuNTQyaC0zMy4zOTFjLTYuMTQ2LDAtMTEuMTMsNC45ODMtMTEuMTMsMTEuMTN2MTAwLjE3NCYjeEE7JiM5OyYjOTsmIzk7YzAsNi4xNDcsNC45ODQsMTEuMTMsMTEuMTMsMTEuMTNoMTMzLjU2NWM2LjE0NiwwLDExLjEzLTQuOTgzLDExLjEzLTExLjEzVjM2Ny4xNjVjMC02LjE0Ny00Ljk4NC0xMS4xMy0xMS4xMy0xMS4xM2gtMzMuMzkxJiN4QTsmIzk7JiM5OyYjOTt2LTEyLjU0MmMyNi45MjEtNS4zNDYsNDkuMjE4LTI1LjU1MSw1Ni42LTUyLjc3NWw3LjU2Ni0yNy45MDFoOC42NTRjNy4wNjMsMCwxMy45NjgtMS4xMDEsMjAuNTA2LTMuMTgybDE4LjEwNiw1My43MDN2MTQyLjg3JiN4QTsmIzk7JiM5OyYjOTtjMCw2LjE0Nyw0Ljk4NCwxMS4xMywxMS4xMywxMS4xM2M2LjE0NiwwLDExLjEzLTQuOTgzLDExLjEzLTExLjEzVjMxMS41MTJjMC0xLjIwOS0wLjE5Ny0yLjQxMS0wLjU4My0zLjU1NmwtMTkuNzc0LTU4LjY1NCYjeEE7JiM5OyYjOTsmIzk7YzUuNzUzLTQuMzI4LDEwLjg1My05LjYwMSwxNS4wNDktMTUuNzAzaDgzLjA5M2M2LjE0NiwwLDExLjEzLTQuOTgzLDExLjEzLTExLjEzdi00NC41MjImI3hBOyYjOTsmIzk7JiM5O0M1MTIsMTcxLjgsNTA3LjAxNiwxNjYuODE3LDUwMC44NywxNjYuODE3eiBNNDc4LjYwOSwxNjYuODE3aC0yMi4yNjF2LTQ0LjUyMmgyMi4yNjFWMTY2LjgxN3ogTTMzLjM5MSwxMjIuMjk1aDIyLjI2MXY0NC41MjImI3hBOyYjOTsmIzk7JiM5O0gzMy4zOTFWMTIyLjI5NXogTTI0NC44NywzNDQuOTA0aDIyLjI2MXYxMS4xM0gyNDQuODdWMzQ0LjkwNHogTTMxMS42NTIsMzc4LjI5NXY3Ny45MTNIMjAwLjM0OHYtNzcuOTEzaDMzLjM5MWg0NC41MjJIMzExLjY1MnoiLz4mI3hhOwk8L2c+JiN4YTs8L2c+JiN4YTs8Zz4mI3hhOwk8Zz4mI3hhOwkJPHBhdGggZD0iTTQxMS45NTMsNDc4LjU2MmMtNi4xNDYsMC0xMS4xMyw0Ljk4My0xMS4xMywxMS4xM3YwLjE4NmMwLDYuMTQ3LDQuOTg0LDExLjEzLDExLjEzLDExLjEzczExLjEzLTQuOTgzLDExLjEzLTExLjEzJiN4QTsmIzk7JiM5OyYjOTt2LTAuMTg2QzQyMy4wODMsNDgzLjU0Niw0MTguMSw0NzguNTYyLDQxMS45NTMsNDc4LjU2MnoiLz4mI3hhOwk8L2c+JiN4YTs8L2c+JiN4YTs8Zz4mI3hhOwk8Zz4mI3hhOwkJPHBhdGggZD0iTTI3OC4yNjEsMzk0Ljk5MWMtMTIuMjc1LDAtMjIuMjYxLDkuOTg2LTIyLjI2MSwyMi4yNjFzOS45ODYsMjIuMjYxLDIyLjI2MSwyMi4yNjFzMjIuMjYxLTkuOTg2LDIyLjI2MS0yMi4yNjEmI3hBOyYjOTsmIzk7JiM5O1MyOTAuNTM2LDM5NC45OTEsMjc4LjI2MSwzOTQuOTkxeiIvPiYjeGE7CTwvZz4mI3hhOzwvZz4mI3hhOzwvc3ZnPg==;fontColor=#DBDBDB;" vertex="1" parent="1">
          <mxGeometry y="105" width="150" height="150" as="geometry" />
        </mxCell>
        <mxCell id="g4TZp5pNpmG4t6H4J_1g-4" value="" style="shape=flexArrow;endArrow=classic;html=1;rounded=0;exitX=1;exitY=0.5;exitDx=0;exitDy=0;" edge="1" parent="1" source="g4TZp5pNpmG4t6H4J_1g-2" target="g4TZp5pNpmG4t6H4J_1g-1">
          <mxGeometry width="50" height="50" relative="1" as="geometry">
            <mxPoint x="290" y="255" as="sourcePoint" />
            <mxPoint x="340" y="205" as="targetPoint" />
          </mxGeometry>
        </mxCell>
        <mxCell id="g4TZp5pNpmG4t6H4J_1g-6" value="&lt;div&gt;Request address with a 32 bit randomly generated&lt;/div&gt;&lt;div&gt;ID&lt;br&gt;&lt;/div&gt;" style="edgeLabel;html=1;align=center;verticalAlign=middle;resizable=0;points=[];labelBackgroundColor=none;" vertex="1" connectable="0" parent="g4TZp5pNpmG4t6H4J_1g-4">
          <mxGeometry x="0.0182" y="-3" relative="1" as="geometry">
            <mxPoint y="-13" as="offset" />
          </mxGeometry>
        </mxCell>
        <mxCell id="g4TZp5pNpmG4t6H4J_1g-7" value="&lt;div&gt;Address offer. 32 bit ID sent back with one&lt;/div&gt;&lt;div&gt;&amp;nbsp;byte of address.&lt;/div&gt;" style="shape=flexArrow;endArrow=classic;html=1;rounded=0;entryX=1;entryY=1;entryDx=0;entryDy=0;labelBackgroundColor=none;exitX=0.008;exitY=0.963;exitDx=0;exitDy=0;exitPerimeter=0;" edge="1" parent="1" source="g4TZp5pNpmG4t6H4J_1g-1" target="g4TZp5pNpmG4t6H4J_1g-2">
          <mxGeometry x="0.0475" y="-15" width="50" height="50" relative="1" as="geometry">
            <mxPoint x="590" y="290" as="sourcePoint" />
            <mxPoint x="400" y="240" as="targetPoint" />
            <mxPoint as="offset" />
          </mxGeometry>
        </mxCell>
        <mxCell id="g4TZp5pNpmG4t6H4J_1g-8" value="" style="shape=flexArrow;endArrow=classic;html=1;rounded=0;" edge="1" parent="1">
          <mxGeometry width="50" height="50" relative="1" as="geometry">
            <mxPoint x="120" y="350" as="sourcePoint" />
            <mxPoint x="600" y="350" as="targetPoint" />
          </mxGeometry>
        </mxCell>
        <mxCell id="g4TZp5pNpmG4t6H4J_1g-9" value="Address acknowledgement" style="edgeLabel;html=1;align=center;verticalAlign=middle;resizable=0;points=[];labelBackgroundColor=none;" vertex="1" connectable="0" parent="g4TZp5pNpmG4t6H4J_1g-8">
          <mxGeometry x="0.1375" y="-1" relative="1" as="geometry">
            <mxPoint x="-23" y="-11" as="offset" />
          </mxGeometry>
        </mxCell>
        <mxCell id="g4TZp5pNpmG4t6H4J_1g-11" value="Arp table updates with the new device. Status: Unauthorized" style="rounded=1;whiteSpace=wrap;html=1;" vertex="1" parent="1">
          <mxGeometry x="596.22" y="420" width="120" height="60" as="geometry" />
        </mxCell>
        <mxCell id="g4TZp5pNpmG4t6H4J_1g-12" value="" style="endArrow=classic;html=1;rounded=0;entryX=0.448;entryY=0;entryDx=0;entryDy=0;entryPerimeter=0;" edge="1" parent="1" target="g4TZp5pNpmG4t6H4J_1g-11">
          <mxGeometry width="50" height="50" relative="1" as="geometry">
            <mxPoint x="650" y="350" as="sourcePoint" />
            <mxPoint x="700" y="300" as="targetPoint" />
          </mxGeometry>
        </mxCell>
      </root>
    </mxGraphModel>
  </diagram>
</mxfile>
